<?xml version="1.0" encoding="utf-8"?>
<!-- Generator: Adobe Illustrator 26.0.1, SVG Export Plug-In . SVG Version: 6.00 Build 0)  -->
<svg version="1.1" id="Layer_1" xmlns="http://www.w3.org/2000/svg" xmlns:xlink="http://www.w3.org/1999/xlink" x="0px" y="0px"
	 width="191.66" height="41.77" viewBox="0 0 191.66 41.77" style="enable-background:new 0 0 191.66 41.77;" xml:space="preserve">
<g>
	<path d="M52.94,34.8h-4.42c-0.1,0-0.15-0.06-0.15-0.19l0.08-26.81c0-0.1,0.05-0.15,0.15-0.15h4.76c0.1,0,0.19,0.05,0.27,0.15
		l3.56,5.15l3.54-5.15c0.08-0.1,0.17-0.15,0.29-0.15h4.78c0.11,0,0.17,0.05,0.17,0.15l0.08,26.81c0,0.13-0.05,0.19-0.15,0.19h-4.42
		c-0.1,0-0.15-0.06-0.15-0.19l-0.04-19.92l-4.1,5.95l-4.06-5.95L53.1,34.61C53.1,34.73,53.04,34.8,52.94,34.8z"/>
	<path d="M76.5,34.76L69.5,34.8c-0.13,0-0.19-0.06-0.19-0.19l0.08-26.81c0-0.1,0.05-0.15,0.15-0.15l7.3-0.04
		c1.45-0.04,2.76,0.29,3.93,0.99c1.18,0.7,2.12,1.64,2.83,2.83c0.71,1.19,1.06,2.5,1.06,3.94v11.21c0,1.5-0.36,2.87-1.09,4.12
		c-0.74,1.23-1.72,2.21-2.93,2.94C79.41,34.36,78.04,34.73,76.5,34.76z M76.84,12.27l-2.73,0.04l-0.04,17.69h2.42
		c0.97,0,1.78-0.34,2.44-1.01c0.66-0.67,0.99-1.48,0.99-2.42V15.32c0-0.83-0.3-1.55-0.91-2.16C78.4,12.54,77.68,12.25,76.84,12.27z"
		/>
</g>
<g>
	<g>
		<path d="M20.73,10.27c-5.85,0-10.61,4.76-10.61,10.61c0,5.85,4.76,10.61,10.61,10.61s10.61-4.76,10.61-10.61
			C31.34,15.03,26.58,10.27,20.73,10.27z"/>
		<path d="M18.57,8.1h4.31c0.34,0,0.63-0.14,0.8-0.39c0.17-0.25,0.2-0.57,0.07-0.89l-2.37-6.1c-0.19-0.49-0.49-0.56-0.66-0.56
			c-0.17,0-0.47,0.07-0.66,0.56l-2.37,6.1c-0.12,0.32-0.1,0.64,0.07,0.89C17.94,7.96,18.23,8.1,18.57,8.1z"/>
		<path d="M22.88,33.67h-4.31c-0.34,0-0.63,0.14-0.8,0.39c-0.17,0.25-0.2,0.57-0.07,0.89l2.37,6.1c0.19,0.49,0.49,0.56,0.66,0.56
			c0.17,0,0.47-0.07,0.66-0.56l2.37-6.1c0.12-0.32,0.1-0.64-0.07-0.89C23.52,33.81,23.22,33.67,22.88,33.67z"/>
		<path d="M8.64,13.08c0.16,0.37,0.48,0.59,0.84,0.59c0.25,0,0.49-0.11,0.69-0.31l3.05-3.05c0.24-0.24,0.35-0.55,0.29-0.84
			c-0.06-0.3-0.27-0.54-0.58-0.68L6.93,6.16c-0.15-0.07-0.29-0.1-0.42-0.1c-0.22,0-0.4,0.1-0.51,0.26C5.91,6.46,5.83,6.71,6,7.09
			L8.64,13.08z"/>
		<path d="M32.82,28.69c-0.16-0.37-0.48-0.59-0.84-0.59c-0.25,0-0.49,0.11-0.69,0.31l-3.05,3.05C28,31.69,27.9,32,27.95,32.29
			c0.06,0.3,0.27,0.54,0.58,0.68l5.99,2.64c0.15,0.07,0.29,0.1,0.42,0.1c0.22,0,0.4-0.1,0.51-0.26c0.09-0.14,0.17-0.39,0-0.77
			L32.82,28.69z"/>
		<path d="M31.29,13.37c0.2,0.2,0.44,0.31,0.69,0.31c0.36,0,0.67-0.22,0.84-0.59l2.64-5.99c0.17-0.38,0.09-0.63,0-0.77
			c-0.11-0.17-0.3-0.26-0.51-0.26c-0.13,0-0.27,0.03-0.42,0.1L28.53,8.8c-0.31,0.14-0.52,0.39-0.58,0.68
			c-0.06,0.3,0.05,0.6,0.29,0.84L31.29,13.37z"/>
		<path d="M10.16,28.4c-0.2-0.2-0.44-0.31-0.69-0.31c-0.36,0-0.67,0.22-0.84,0.59L6,34.68c-0.17,0.38-0.09,0.63,0,0.77
			c0.11,0.17,0.3,0.26,0.51,0.26c0.13,0,0.27-0.03,0.42-0.1l5.99-2.64c0.31-0.14,0.52-0.39,0.58-0.68c0.06-0.3-0.05-0.6-0.29-0.84
			L10.16,28.4z"/>
		<path d="M40.9,20.22l-6.1-2.37c-0.13-0.05-0.26-0.08-0.39-0.08c-0.51,0-0.89,0.4-0.89,0.95l0,4.31c0,0.55,0.37,0.95,0.89,0.95
			c0.13,0,0.26-0.03,0.39-0.08l6.1-2.37c0.49-0.19,0.56-0.49,0.56-0.66C41.45,20.72,41.38,20.41,40.9,20.22z"/>
		<path d="M7.06,23.99c0.51,0,0.89-0.4,0.89-0.95v-4.31c0-0.55-0.37-0.95-0.89-0.95c-0.13,0-0.26,0.03-0.39,0.08l-6.1,2.37
			C0.07,20.41,0,20.72,0,20.89c0,0.17,0.07,0.47,0.56,0.66l6.1,2.37C6.79,23.97,6.93,23.99,7.06,23.99z"/>
	</g>
</g>
<g>
	<path d="M105.84,32.55l-0.27,1.11c-0.9,0.2-1.63,0.29-2.21,0.29c-0.55,0-1.45-0.06-2.71-0.18c-0.95-0.08-1.8-0.12-2.56-0.12
		c-1.3,0-2.64,0.12-4.02,0.35l0.27-1.07c1.32-0.13,2.27-0.4,2.87-0.82c0.43-0.3,0.8-0.81,1.1-1.53s1-3.25,2.08-7.57l2.5-10.35
		l0.14-0.49c-0.77-0.04-1.35-0.06-1.74-0.06c-2.41,0-4.32,0.26-5.73,0.78s-2.47,1.28-3.18,2.27s-1.06,2.06-1.06,3.21
		c0,0.4,0.07,0.78,0.21,1.12c0.1,0.24,0.39,0.61,0.86,1.14c0.44,0.48,0.66,0.93,0.66,1.33c0,0.35-0.13,0.65-0.39,0.9
		c-0.26,0.25-0.57,0.37-0.94,0.37c-0.55,0-0.99-0.26-1.33-0.78c-0.5-0.77-0.74-1.74-0.74-2.93c0-1.59,0.49-3.13,1.48-4.63
		c0.98-1.5,2.33-2.66,4.05-3.48s3.81-1.23,6.27-1.23c1.17,0,3.04,0.17,5.61,0.51c1.82,0.23,3.14,0.35,3.96,0.35s1.4-0.14,1.74-0.41
		s0.51-0.64,0.51-1.09c0-0.09-0.02-0.27-0.06-0.55c-0.04-0.25-0.06-0.41-0.06-0.49c0-0.35,0.12-0.64,0.35-0.88s0.51-0.35,0.84-0.35
		c0.39,0,0.71,0.14,0.97,0.43c0.25,0.29,0.38,0.67,0.38,1.15c0,0.99-0.53,1.84-1.58,2.56c-1.05,0.72-2.82,1.07-5.29,1.07
		c-0.88,0-1.83-0.04-2.83-0.12c-0.13,0.47-0.54,2.06-1.23,4.77l-1.7,6.76l-1.04,4.12l-1.08,4.71c0.87,0.1,1.59,0.16,2.17,0.16
		C103.98,32.89,104.89,32.78,105.84,32.55z"/>
	<path d="M113.5,33.67h-2.91l1.37-5.25c0.66-2.58,1.24-5.03,1.74-7.34c0.12-0.57,0.18-0.93,0.18-1.07c0-0.31-0.14-0.47-0.43-0.47
		c-0.2,0-0.5,0.13-0.9,0.4c-0.4,0.27-1.13,0.93-2.19,1.98l-0.61-0.68c1.25-1.34,2.5-2.35,3.74-3.02c1.24-0.67,2.2-1.01,2.86-1.01
		c0.23,0,0.42,0.06,0.56,0.17c0.14,0.11,0.21,0.25,0.21,0.42c0,0.17-0.09,0.62-0.26,1.35L116,22.66c1.32-2.08,2.8-3.86,4.46-5.33
		c0.8-0.71,1.46-1.06,2-1.06c0.39,0,0.72,0.13,0.98,0.38s0.39,0.55,0.39,0.89c0,0.35-0.13,0.65-0.38,0.9
		c-0.25,0.25-0.89,0.54-1.9,0.88c-0.96,0.33-1.75,0.72-2.35,1.17c-0.61,0.46-1.27,1.15-1.99,2.09c-0.72,0.94-1.23,1.76-1.51,2.45
		s-0.72,2.31-1.31,4.85L113.5,33.67z"/>
	<path d="M135.2,16.91l1.29-0.27l-1.46,4.94c-0.59,1.97-1.14,4.23-1.66,6.8c-0.29,1.39-0.43,2.29-0.43,2.7s0.16,0.61,0.49,0.61
		c0.21,0,0.54-0.14,1-0.41c0.81-0.48,1.58-1.08,2.32-1.8l0.62,0.76c-1.48,1.35-2.43,2.17-2.85,2.46c-0.83,0.57-1.63,1-2.38,1.27
		c-0.5,0.18-0.98,0.27-1.45,0.27c-0.34,0-0.59-0.08-0.76-0.23s-0.25-0.38-0.25-0.68c0-0.2,0.05-0.46,0.16-0.8l0.78-2.66
		c-1.12,1.34-2.45,2.49-4,3.46c-0.95,0.6-1.82,0.9-2.62,0.9c-0.75,0-1.33-0.27-1.74-0.8c-0.55-0.72-0.82-1.65-0.82-2.81
		c0-1.38,0.37-2.92,1.1-4.61c0.74-1.69,1.72-3.23,2.96-4.61c1.24-1.38,2.54-2.4,3.91-3.05c1.05-0.49,2.41-0.74,4.06-0.74
		c0.42,0,0.84,0.03,1.27,0.08L135.2,16.91z M132.77,19.9c-0.7-0.14-1.3-0.21-1.78-0.21c-1.17,0-2.19,0.32-3.07,0.97
		c-0.87,0.64-1.68,1.8-2.43,3.48c-0.75,1.67-1.12,3.34-1.12,5.01c0,0.89,0.15,1.52,0.45,1.91s0.69,0.59,1.17,0.59
		c0.9,0,1.86-0.49,2.89-1.46c1.03-0.97,1.78-2.37,2.27-4.19L132.77,19.9z"/>
	<path d="M147.68,19.1c-1,1.6-1.7,3.01-2.08,4.24c-0.38,1.22-0.58,2.44-0.58,3.65c0,1.12,0.25,2.87,0.74,5.25
		c2.88-2.19,4.92-4.23,6.11-6.14c1.2-1.91,1.8-3.55,1.8-4.93c0-0.4-0.15-0.91-0.45-1.52c-0.33-0.65-0.49-1.13-0.49-1.45
		c0-0.34,0.12-0.63,0.35-0.89s0.51-0.38,0.84-0.38c0.43,0,0.77,0.19,1.04,0.56s0.39,1,0.39,1.88c0,2.77-0.98,5.48-2.95,8.11
		c-2.41,3.23-5.46,5.72-9.16,7.46c-0.09-0.61-0.27-1.59-0.55-2.93c-0.53-2.7-0.8-4.57-0.8-5.62c0-1.39,0.33-2.74,0.98-4.05
		s1.61-2.44,2.89-3.41c-2.29,0.04-3.93,0.29-4.92,0.76c-0.7,0.34-1.05,0.74-1.05,1.19c0,0.18,0.09,0.49,0.27,0.92
		c0.12,0.3,0.18,0.55,0.18,0.76c0,0.21-0.09,0.39-0.26,0.56c-0.18,0.16-0.39,0.24-0.65,0.24c-0.34,0-0.62-0.14-0.86-0.43
		c-0.23-0.29-0.35-0.67-0.35-1.15c0-0.77,0.25-1.46,0.76-2.08c0.51-0.62,1.39-1.1,2.64-1.46s2.9-0.51,4.96-0.49
		c0.83-0.36,1.36-0.55,1.58-0.55c0.21,0,0.4,0.08,0.57,0.25c0.17,0.17,0.25,0.35,0.25,0.55C148.87,18.41,148.47,18.77,147.68,19.1z"
		/>
	<path d="M166.51,28.77l0.64,0.86c-3.19,3.03-5.92,4.55-8.2,4.55c-0.92,0-1.63-0.31-2.12-0.94s-0.73-1.63-0.73-3.01
		c0-2.79,0.85-5.56,2.54-8.32c1.9-3.14,4.17-4.71,6.82-4.71c0.92,0,1.63,0.23,2.12,0.69c0.49,0.46,0.73,1.1,0.73,1.9
		c0,0.85-0.29,1.68-0.88,2.5s-1.63,1.67-3.14,2.56c-0.75,0.43-2.37,1.21-4.84,2.32c-0.12,0.7-0.18,1.37-0.18,2.01
		c0,0.92,0.15,1.57,0.44,1.93s0.72,0.55,1.28,0.55c0.53,0,1.12-0.15,1.76-0.45C163.6,30.82,164.85,30,166.51,28.77z M159.67,25.93
		c2.1-0.94,3.67-1.95,4.73-3.03c0.72-0.75,1.07-1.5,1.07-2.25c0-0.56-0.15-1.01-0.44-1.34s-0.67-0.5-1.14-0.5
		c-0.48,0-0.95,0.18-1.41,0.55c-0.61,0.48-1.13,1.21-1.54,2.19C160.34,22.99,159.92,24.45,159.67,25.93z"/>
	<path d="M177.99,28.96l0.66,0.7c-1.02,1.15-2.22,2.19-3.6,3.13s-2.53,1.42-3.43,1.42c-0.4,0-0.74-0.15-1-0.46s-0.39-0.73-0.39-1.26
		c0-1.04,0.4-3.2,1.21-6.48l2.11-8.57c0.77-3.1,1.41-5.18,1.93-6.23c0.81-1.6,1.95-2.83,3.42-3.72c1.48-0.88,3.03-1.32,4.67-1.32
		c0.56,0,1,0.13,1.32,0.4c0.32,0.27,0.48,0.59,0.48,0.97c0,0.42-0.16,0.76-0.47,1.03c-0.31,0.27-0.77,0.4-1.36,0.4
		c-0.39,0-0.94-0.06-1.65-0.2c-0.62-0.1-1.2-0.16-1.73-0.16s-0.93,0.11-1.21,0.33c-0.38,0.31-0.72,0.97-1.02,1.96
		s-0.8,2.97-1.49,5.91l-1.95,8.18c-0.96,4.1-1.45,6.24-1.45,6.43c0,0.42,0.15,0.62,0.45,0.62c0.29,0,0.7-0.17,1.25-0.51
		C175.83,30.88,176.91,30.02,177.99,28.96z"/>
	<path d="M188.03,17.24c1.16,0,2.05,0.22,2.69,0.67s0.95,0.97,0.95,1.55c0,0.35-0.13,0.66-0.4,0.92c-0.27,0.26-0.59,0.39-0.97,0.39
		c-0.25,0-0.46-0.06-0.64-0.17c-0.18-0.11-0.44-0.39-0.78-0.83c-0.64-0.85-1.27-1.27-1.89-1.27c-0.53,0-1.01,0.21-1.42,0.61
		s-0.62,0.92-0.62,1.53c0,0.53,0.13,1.05,0.39,1.55c0.26,0.5,0.92,1.31,1.97,2.43c1.45,1.54,2.17,2.99,2.17,4.37
		c0,1.38-0.59,2.58-1.76,3.62s-2.68,1.55-4.53,1.55c-1.55,0-2.7-0.32-3.46-0.95s-1.13-1.41-1.13-2.33c0-0.46,0.14-0.83,0.43-1.13
		c0.29-0.3,0.64-0.45,1.05-0.45c0.36,0,0.68,0.12,0.94,0.36c0.26,0.24,0.39,0.52,0.39,0.85c0,0.13-0.01,0.3-0.03,0.51
		c-0.01,0.17-0.01,0.31-0.01,0.43c0,0.43,0.18,0.79,0.54,1.09c0.35,0.3,0.83,0.45,1.44,0.45c0.7,0,1.32-0.12,1.85-0.36
		c0.53-0.24,0.95-0.61,1.25-1.09c0.3-0.49,0.45-0.97,0.45-1.45c0-0.47-0.14-0.94-0.42-1.4c-0.28-0.47-0.91-1.24-1.88-2.32
		c-1.35-1.51-2.03-2.96-2.03-4.35c0-1.27,0.51-2.39,1.54-3.35C185.13,17.72,186.44,17.24,188.03,17.24z"/>
</g>
</svg>
